<svg width="75" height="101" viewBox="0 0 75 101" fill="none" xmlns="http://www.w3.org/2000/svg">
<path d="M24.1857 78.0773C24.1857 78.0773 20.319 80.3178 26.9375 81.0759C34.9557 81.9873 39.0537 81.8566 47.8898 80.1903C47.8898 80.1903 50.2129 81.6417 53.4573 82.8987C33.6491 91.3575 8.62744 82.4088 24.1857 78.0773Z" fill="#5382A1"/>
<path d="M21.7652 67.0392C21.7652 67.0392 17.4283 70.2378 24.0518 70.9204C32.6171 71.8009 39.3812 71.8729 51.0859 69.6272C51.0859 69.6272 52.7048 71.2626 55.2504 72.1569C31.3012 79.1346 4.62597 72.7071 21.7652 67.0392Z" fill="#5382A1"/>
<path d="M42.1705 48.3149C47.0512 53.9138 40.8881 58.9521 40.8881 58.9521C40.8881 58.9521 53.2811 52.5777 47.5895 44.5953C42.2738 37.1513 38.1974 33.4527 60.2656 20.7002C60.2656 20.7002 25.6257 29.3203 42.1705 48.3149Z" fill="#E76F00"/>
<path d="M68.3684 86.2416C68.3684 86.2416 71.2298 88.5908 65.217 90.4082C53.7835 93.8593 17.6294 94.9014 7.58591 90.5457C3.97554 88.9808 10.746 86.809 12.8757 86.3533C15.0968 85.8734 16.3661 85.9628 16.3661 85.9628C12.351 83.1446 -9.58582 91.4965 5.22327 93.8884C45.6098 100.414 78.8441 90.9498 68.3684 86.2416Z" fill="#5382A1"/>
<path d="M26.0452 55.6025C26.0452 55.6025 7.65491 59.9546 19.5327 61.5351C24.5479 62.2041 34.5455 62.0527 43.8581 61.2753C51.4688 60.6356 59.1109 59.2756 59.1109 59.2756C59.1109 59.2756 56.4273 60.4207 54.4857 61.7416C35.8107 66.6354 -0.26591 64.3587 10.1201 59.353C18.9035 55.1226 26.0452 55.6025 26.0452 55.6025Z" fill="#5382A1"/>
<path d="M59.0351 73.9758C78.0191 64.1467 69.2416 54.7011 63.1151 55.9736C61.6134 56.2851 60.9439 56.5549 60.9439 56.5549C60.9439 56.5549 61.5014 55.6848 62.5661 55.3081C74.6864 51.0625 84.0076 67.8302 58.6535 74.4712C58.6535 74.4715 58.9473 74.2098 59.0351 73.9758Z" fill="#5382A1"/>
<path d="M47.5895 0.108398C47.5895 0.108398 58.1032 10.5875 37.6178 26.7014C21.1906 39.6275 33.8719 46.9976 37.611 55.4182C28.0222 46.7981 20.9853 39.2098 25.7062 32.1473C32.6354 21.7802 51.8315 16.7538 47.5895 0.108398Z" fill="#E76F00"/>
<path d="M27.9106 100.61C46.1329 101.773 74.1153 99.9656 74.778 91.3745C74.778 91.3745 73.5041 94.6313 59.7183 97.2177C44.1652 100.134 24.9826 99.7935 13.6053 97.9245C13.6055 97.9242 15.9343 99.8452 27.9106 100.61Z" fill="#5382A1"/>
</svg>
