<svg width="83" height="67" viewBox="0 0 83 67" fill="none" xmlns="http://www.w3.org/2000/svg">
<g clip-path="url(#clip0)">
<path d="M56.2702 21.3339L47.105 24.3223L39.1315 27.8363L36.9007 28.4244C36.3326 28.964 35.7369 29.5105 35.0927 30.0639C34.3861 30.6726 33.728 31.2261 33.2222 31.6272C32.6611 32.07 31.8298 32.9 31.4072 33.4257C30.7768 34.2143 30.278 35.0513 30.0632 35.6947C29.6822 36.8568 29.8693 38.0328 30.6036 39.1189C31.5458 40.5023 33.4232 41.9135 35.6122 42.875C36.7276 43.3662 38.6049 43.9957 40.0181 44.3484C42.3665 44.9434 46.911 45.5867 49.4118 45.6836C49.9174 45.7043 50.5964 45.7043 50.624 45.6836C50.6795 45.6489 51.0675 44.9088 51.5178 43.9888C53.0557 40.8551 54.1641 37.9152 54.7668 35.4042C55.127 33.8824 55.411 31.8555 55.598 29.4553C55.6465 28.7842 55.6672 26.536 55.6257 25.7751C55.5633 24.5299 55.4524 23.52 55.2794 22.5308C55.2517 22.3855 55.2446 22.2541 55.2586 22.2472C55.2862 22.2264 55.3693 22.1988 56.4985 21.8736L56.27 21.3341V21.3339H56.2702V21.3339ZM54.178 22.5583C54.2612 22.5583 54.4828 24.682 54.5382 26.0241C54.5521 26.3076 54.5451 26.4944 54.5313 26.4944C54.4759 26.4944 53.3605 25.8373 52.564 25.3393C51.8712 24.9034 50.555 24.0318 50.3472 23.8658C50.2778 23.8174 50.2847 23.8105 50.8528 23.6168C51.8157 23.2916 54.1019 22.5583 54.178 22.5583ZM49.5089 24.0941C49.5713 24.0941 49.7305 24.1839 50.1115 24.4191C51.5386 25.3115 53.4783 26.3907 54.3096 26.7504C54.5659 26.8611 54.5935 26.8195 54.0048 27.2208C52.744 28.0785 51.1713 28.9224 49.2455 29.7733C48.9061 29.9255 48.6221 30.0431 48.6152 30.0431C48.6014 30.0431 48.6428 29.8702 48.6982 29.6627C49.1624 27.9401 49.4257 26.1969 49.4396 24.7996C49.4465 24.1078 49.4465 24.1078 49.5089 24.0871C49.4949 24.0941 49.5018 24.0941 49.5089 24.0941ZM48.546 24.4606C48.5874 24.5021 48.5598 26.0517 48.5043 26.4736C48.3796 27.4836 48.1857 28.4243 47.8671 29.4828C47.7909 29.7386 47.7215 29.9532 47.7078 29.9669C47.6799 30.0015 46.7309 29.0746 46.4191 28.7149C45.8788 28.0923 45.4563 27.4697 45.1445 26.861C44.9852 26.5497 44.7358 25.941 44.7566 25.9202C44.8674 25.8441 48.5182 24.433 48.546 24.4606ZM44.0153 26.2384C44.0222 26.2384 44.0291 26.2384 44.0361 26.2453C44.0499 26.2592 44.0985 26.3699 44.1401 26.4943C44.3617 27.0962 44.8604 27.9816 45.29 28.5489C45.7611 29.1715 46.3777 29.8355 46.8902 30.2713C47.0565 30.4096 47.2088 30.541 47.2296 30.5618C47.2712 30.6034 47.2851 30.5964 46.1558 31.0253C44.8467 31.5234 43.4195 32.0214 41.7846 32.5471C41.394 32.6728 41.0038 32.7997 40.614 32.9276C40.5515 32.9484 40.5724 32.9138 40.7525 32.6302C41.563 31.3643 42.796 28.8809 43.4888 27.1238C43.6066 26.8195 43.7244 26.5151 43.7452 26.446C43.7729 26.349 43.8075 26.3145 43.8975 26.266C43.946 26.2523 43.9946 26.2384 44.0153 26.2384ZM42.6299 26.8126C42.6506 26.8265 42.2973 27.5666 41.9509 28.2445C41.2789 29.5519 40.5446 30.8386 39.5609 32.4019C39.3947 32.6717 39.2354 32.9208 39.2146 32.9484C39.18 32.9969 39.1661 32.983 39.0552 32.7686C38.8197 32.3051 38.6257 31.7101 38.5218 31.1636C38.4178 30.624 38.4387 29.6833 38.5565 29.1023C38.6464 28.6734 38.6396 28.6804 38.8474 28.5766C39.7341 28.1269 42.6022 26.7849 42.6299 26.8126ZM54.5798 27.2969V27.5874C54.5798 29.13 54.4136 31.2467 54.171 32.7894C54.1295 33.0591 54.0947 33.2804 54.0879 33.2874C54.0879 33.2874 53.887 33.2321 53.6515 33.1629C52.6124 32.8377 51.4832 32.3604 50.4648 31.8002C49.7927 31.4335 48.816 30.8316 48.8438 30.8039C48.8506 30.7971 49.1416 30.6449 49.481 30.465C50.839 29.7595 52.1412 28.9986 53.2704 28.2446C53.6931 27.9609 54.3303 27.5044 54.469 27.3799L54.5798 27.2969ZM37.3995 29.3443C37.4272 29.3443 37.4203 29.3997 37.3787 29.6487C37.351 29.8286 37.3164 30.1606 37.3026 30.3888C37.2471 31.3988 37.4134 32.1459 37.9122 33.1697C38.0508 33.4533 38.1617 33.6885 38.1546 33.6954C38.1061 33.7369 33.5202 35.079 32.0792 35.4732C31.6497 35.5908 31.2757 35.6946 31.2478 35.7014C31.1994 35.7153 31.1925 35.7084 31.2132 35.5907C31.3725 34.5739 32.1485 33.2458 33.2291 32.1251C33.9496 31.378 34.5246 30.9423 35.5083 30.3819C36.2149 29.9807 37.3025 29.379 37.3856 29.3512C37.3857 29.3443 37.3926 29.3443 37.3995 29.3443ZM48.2065 31.2743C48.2134 31.2674 48.3796 31.3574 48.5805 31.4749C50.063 32.3327 52.1274 33.1283 53.8869 33.5364L54.0463 33.571L53.8246 33.6954C52.9033 34.2073 49.876 35.4663 46.7794 36.6216C46.3291 36.7875 45.8858 36.9536 45.8025 36.9881C45.7194 37.0227 45.6432 37.0435 45.6432 37.0366C45.6432 37.0296 45.7679 36.7875 45.9272 36.4901C46.7931 34.8714 47.666 32.8999 48.1094 31.5303C48.1649 31.3988 48.1995 31.2813 48.2065 31.2743ZM47.105 31.6341C47.112 31.6411 47.0566 31.7862 46.9872 31.9523C46.3846 33.4118 45.5947 35.003 44.5834 36.7876C44.3271 37.2442 44.1123 37.6109 44.1053 37.6109C44.0985 37.6109 43.8906 37.4863 43.6412 37.3341C42.1725 36.4348 40.8702 35.328 40.0181 34.2558L39.8934 34.1036L40.5237 33.9307C42.7822 33.3151 44.701 32.651 46.6062 31.8348C46.8764 31.724 47.0981 31.6341 47.105 31.6341ZM53.9494 34.0206C53.9494 34.0206 53.9563 34.0275 53.9494 34.0206C53.9563 34.1797 53.603 35.6047 53.312 36.6353C53.0696 37.5 52.8616 38.178 52.4807 39.3746C52.3145 39.9005 52.1691 40.3362 52.1621 40.3362C52.1552 40.3362 52.1136 40.3293 52.072 40.3155C50.0146 39.9419 48.1719 39.4231 46.44 38.7314C45.955 38.5376 45.2623 38.2263 45.2207 38.1918C45.2069 38.1778 45.6226 37.9842 46.149 37.7559C49.3011 36.3794 52.5708 34.816 53.6931 34.1451C53.8246 34.0621 53.9286 34.0206 53.9494 34.0206ZM38.1477 34.5602C38.1616 34.574 37.2818 35.8399 36.0486 37.5623C35.6192 38.1642 35.1204 38.8697 34.9334 39.1326C34.7463 39.3955 34.4623 39.8105 34.303 40.0596L34.0119 40.5092L33.7001 40.2464C33.333 39.9419 32.6957 39.2917 32.4117 38.932C31.8159 38.1919 31.4142 37.4102 31.2548 36.6978C31.1786 36.3657 31.1786 36.1996 31.2478 36.179C31.3517 36.1513 33.2013 35.7155 34.9333 35.3142C35.8963 35.0929 37.0115 34.83 37.4133 34.7332C37.8152 34.6362 38.1408 34.5602 38.1477 34.5602ZM39.0344 34.8992L39.256 35.1482C40.2537 36.2619 41.272 37.0852 42.5051 37.8045C42.7269 37.9291 42.8931 38.0397 42.8791 38.0467C42.8308 38.0813 38.5979 39.5822 36.6375 40.2602C35.5361 40.6475 34.6285 40.9588 34.6217 40.9588C34.6148 40.9588 34.5524 40.9173 34.483 40.8689L34.3584 40.7789L34.5592 40.4885C35.2104 39.5477 36.028 38.517 37.8083 36.3726L39.0344 34.8992ZM44.5627 38.849C44.5695 38.8421 44.8743 38.9527 45.2483 39.0912C46.149 39.4301 46.8625 39.6445 47.8185 39.8866C48.9962 40.1841 50.7004 40.4747 51.7049 40.5576C51.8573 40.5714 51.9405 40.5853 51.9127 40.6061C51.8641 40.6338 50.8459 40.9727 50.0977 41.2079C48.9061 41.5814 45.2692 42.6536 42.3043 43.5045C41.757 43.6636 41.2859 43.7951 41.2582 43.8019C41.189 43.8158 40.9603 43.7535 40.9603 43.7258C40.9603 43.7121 41.1265 43.4976 41.3275 43.2624C42.325 42.0726 43.3157 40.7444 44.1401 39.4855C44.3686 39.1395 44.5627 38.8559 44.5627 38.849ZM43.3433 38.8836C43.3502 38.8905 42.8584 39.6791 41.9995 41.0349C41.6322 41.609 41.2235 42.2593 41.078 42.4876C40.9394 42.7089 40.7316 43.0549 40.6139 43.2485L40.413 43.6013L40.3091 43.5736C40.0596 43.5045 38.307 42.8887 37.8429 42.702C37.2678 42.4737 36.6721 42.1971 36.2287 41.9619C35.6746 41.6644 34.9819 41.2216 35.0372 41.2079C35.051 41.201 36.0001 40.9449 37.1431 40.6337C40.1774 39.8104 41.8608 39.3332 42.9623 38.9873C43.1633 38.9251 43.3364 38.8766 43.3433 38.8836ZM51.9681 40.9034H51.975C52.0027 40.9727 50.8805 44.0855 50.4716 45.0678C50.3817 45.2891 50.3472 45.3446 50.2986 45.3375C50.1808 45.3307 48.5529 45.1024 47.5622 44.9571C45.8373 44.6943 42.9415 44.1892 42.2142 44.0233L42.048 43.9887L43.08 43.7534C45.2969 43.2553 46.3637 42.9856 47.4444 42.6535C48.8091 42.2385 50.1601 41.7197 51.5247 41.0833C51.7395 40.9864 51.9196 40.9104 51.9681 40.9034Z" fill="url(#paint0_linear)"/>
<path d="M46.821 0.000354305C46.6686 -0.0202844 44.2093 0.86514 42.6229 1.50839C40.4822 2.38009 38.8197 3.21024 37.7944 3.9295C37.4135 4.1994 36.9354 4.67664 36.8593 4.86338C36.8316 4.93257 36.8177 5.01557 36.8177 5.09857L37.746 5.9771L39.9558 6.68268L45.2138 7.62348L51.2269 8.65421L51.2893 8.1354C51.2685 8.1354 51.2546 8.12851 51.234 8.12851L50.444 8.00394L50.2848 7.72036C49.4673 6.28149 48.5668 4.49676 48.0403 3.29311C47.6316 2.35923 47.2437 1.28021 47.0289 0.505413C46.9111 0.0350284 46.8973 0.00737204 46.8212 0.000481831V0.000322179H46.821V0.000354305ZM46.71 0.353255H46.7172C46.724 0.360081 46.7517 0.5539 46.7795 0.782043C46.8971 1.75063 47.112 2.68435 47.4514 3.69434C47.7077 4.45529 47.7077 4.41382 47.4099 4.32384C46.7033 4.13021 43.5374 3.58371 41.2444 3.26552C40.8772 3.21706 40.5655 3.16867 40.5655 3.16178C40.5378 3.13413 42.2211 2.25553 42.9624 1.90974C43.9114 1.47384 46.5162 0.387801 46.71 0.353255ZM40.0319 3.45226L40.3022 3.54208C41.7708 4.04022 45.4631 4.74583 47.4999 4.91183C47.7284 4.9326 47.9225 4.9534 47.9293 4.9534C47.9362 4.96029 47.7423 5.06405 47.4929 5.1816C46.5093 5.67275 45.4285 6.2746 44.6803 6.73809C44.4587 6.87637 44.2577 6.98713 44.2301 6.98713C44.2024 6.98713 44.0569 6.95944 43.9045 6.93867L43.6274 6.89711L42.9348 6.21915C41.7155 5.03633 40.7595 4.12325 40.3923 3.77731L40.0319 3.45226ZM39.7549 3.66665L40.7317 4.88418C41.2651 5.55517 41.8054 6.2123 41.9233 6.3575C42.041 6.50287 42.138 6.62051 42.1311 6.6274C42.1034 6.64813 40.718 6.3783 39.9835 6.21236C39.2285 6.03937 38.9167 5.95637 38.4526 5.81116L38.0715 5.6866V5.58969C38.0784 5.12619 38.6674 4.43449 39.6649 3.72898L39.7549 3.66665ZM48.0541 5.32687C48.0818 5.32687 48.1164 5.38911 48.1995 5.57588C48.435 6.09465 49.1695 7.49206 49.3494 7.7618C49.405 7.85182 49.5018 7.85871 48.5252 7.69959C46.1768 7.31904 45.4216 7.19466 45.4216 7.18082C45.4216 7.17393 45.4909 7.12547 45.581 7.07702C46.3084 6.67589 47.0427 6.16394 47.6939 5.61744C47.8532 5.48598 47.9987 5.36148 48.0264 5.34068C48.0333 5.32687 48.0472 5.31998 48.0541 5.32687Z" fill="url(#paint1_linear)"/>
<path d="M36.9076 4.7666C36.9076 4.7666 36.7553 5.00881 36.9007 5.36854C36.9909 5.58982 37.2541 5.85956 37.5519 6.13632C37.5519 6.13632 40.6346 9.13847 41.0087 9.56742C42.7128 11.5319 43.4541 13.4688 43.5234 16.139C43.565 17.8546 43.2393 19.3626 42.4288 21.1127C40.9879 24.2533 37.9467 27.7189 33.2568 31.5651L33.9427 31.3368C34.386 31.0047 34.9888 30.652 36.4019 29.8772C39.6647 28.0924 43.3363 26.453 47.8393 24.7651C54.3233 22.3301 64.9848 19.48 71.0532 18.5532L71.6837 18.4563L71.5867 18.3041C71.0326 17.4463 70.6515 16.9137 70.1942 16.3465C68.8642 14.7001 67.2502 13.3651 65.2757 12.2583C62.5602 10.7434 59.0478 9.56053 54.6005 8.682C53.7622 8.5159 51.9195 8.19774 50.4232 7.96947C47.2503 7.47844 45.1998 7.13942 42.9415 6.75204C42.131 6.61362 40.9186 6.40615 40.115 6.23326C39.6994 6.14324 38.9028 5.9565 38.2793 5.74208C37.7805 5.54829 37.06 5.3546 36.9076 4.7666ZM38.695 6.49604C38.7018 6.48922 38.8127 6.53059 38.9582 6.57905C39.2215 6.66887 39.5609 6.77267 39.9628 6.88343C40.2668 6.96694 40.5716 7.04764 40.8772 7.12551C41.2928 7.22921 41.6392 7.32609 41.6461 7.32609C41.6946 7.37455 42.3943 9.60873 42.6299 10.4665C42.7198 10.7917 42.7892 11.0684 42.7823 11.0684C42.7752 11.0754 42.6991 10.9577 42.609 10.7986C41.7985 9.3736 40.5169 7.92787 39.0344 6.76569C38.8405 6.62747 38.695 6.50294 38.695 6.49604ZM42.1033 7.43681C42.138 7.43681 42.2904 7.45758 42.4773 7.49905C43.655 7.7619 45.768 8.16313 47.1188 8.39143C47.3474 8.42597 47.5276 8.46757 47.5276 8.48132C47.5276 8.49523 47.4444 8.54355 47.3404 8.59896C47.1119 8.71651 46.1905 9.26294 45.8858 9.47051C45.1167 9.9824 44.4241 10.5358 43.9252 11.0338C43.7244 11.2345 43.5511 11.4005 43.5511 11.4005C43.5511 11.4005 43.5097 11.2829 43.4749 11.1376C43.2256 10.176 42.706 8.75099 42.2349 7.74802C42.1587 7.58897 42.0963 7.44367 42.0963 7.42989C42.0963 7.4437 42.0963 7.43681 42.1033 7.43681ZM48.1025 8.5782C48.1441 8.59198 48.2134 8.8272 48.3519 9.34598C48.6082 10.3491 48.726 11.4697 48.6845 12.5142C48.6705 12.8048 48.6567 13.0745 48.6428 13.1092L48.6221 13.1783L48.2618 13.0607C47.5206 12.8255 46.3153 12.4727 45.2831 12.1822C44.6942 12.0231 44.2163 11.8778 44.2163 11.864C44.2163 11.8224 45.0753 10.9647 45.4424 10.6396C46.142 10.0239 48.0401 8.5574 48.1025 8.5782ZM48.5805 8.64729C48.6013 8.62665 51.4485 9.11767 52.744 9.36674C53.707 9.55348 55.1063 9.84405 55.1894 9.87869C55.2309 9.89247 55.0854 9.97547 54.6213 10.183C52.7924 11.0062 51.4346 11.7463 50.0839 12.6457C49.7305 12.8808 49.4326 13.0745 49.4257 13.0745C49.4188 13.0745 49.4119 12.874 49.4119 12.6318C49.4119 11.3175 49.1486 9.98935 48.6636 8.86873C48.6151 8.75804 48.5736 8.65431 48.5805 8.64729ZM55.9444 10.1C55.9653 10.1208 55.8751 10.6811 55.792 11.0131C55.5427 12.0438 54.8707 13.5727 54.0464 15.0115C53.9008 15.2674 53.7692 15.4749 53.7553 15.4818C53.7416 15.4887 53.5545 15.3849 53.3397 15.2604C52.5361 14.79 51.6217 14.3473 50.6241 13.9322C50.3471 13.8147 50.1046 13.7178 50.0977 13.7041C50.0491 13.6625 52.2798 12.1891 53.4575 11.4835C54.3927 10.9163 55.9167 10.0723 55.9444 10.1ZM56.4709 10.183C56.5333 10.183 57.7941 10.5289 58.4521 10.7226C60.0801 11.2069 61.9505 11.8917 63.1698 12.445L63.6754 12.6734L63.3222 12.7563C60.3435 13.4411 57.7941 14.2298 55.3348 15.2259C55.1339 15.3089 54.9537 15.3781 54.94 15.3781C54.9261 15.3781 54.9954 15.219 55.0854 15.0253C55.8267 13.455 56.3047 11.8156 56.4224 10.4182C56.4294 10.2867 56.4501 10.183 56.4709 10.183ZM43.9183 13.0607C43.9391 13.0399 44.902 13.2683 45.4216 13.4134C46.2113 13.6348 47.8877 14.1951 47.8877 14.2367C47.8877 14.2435 47.7007 14.4027 47.4791 14.5964C46.5716 15.3504 45.6987 16.1458 44.6526 17.1558C44.3408 17.4534 44.0776 17.6954 44.0638 17.6954C44.0499 17.6954 44.0431 17.6538 44.0499 17.5985C44.2092 16.4364 44.1747 14.9422 43.953 13.4273C43.9321 13.2336 43.9114 13.0676 43.9183 13.0607ZM64.1536 13.0815C64.1673 13.0953 63.7102 13.8147 63.4192 14.2228C63.0037 14.8177 62.3939 15.6064 61.0153 17.3358C60.288 18.2488 59.4705 19.2796 59.2004 19.6254C58.9232 19.9713 58.6947 20.2617 58.6876 20.2617C58.6807 20.2617 58.5908 20.1373 58.4938 19.9851C57.7178 18.823 56.7895 17.8061 55.688 16.893C55.4802 16.72 55.2517 16.5332 55.1755 16.4779C55.0993 16.4226 55.0369 16.3672 55.0369 16.3603C55.0369 16.3396 56.2145 15.8345 57.1083 15.4749C58.6739 14.8385 60.8073 14.0776 62.4077 13.5864C63.246 13.3236 64.1397 13.0676 64.1536 13.0815ZM64.687 13.2198C64.7146 13.2129 64.8809 13.2959 65.0818 13.4134C66.7653 14.3749 68.4139 15.6132 69.7164 16.8861C70.0835 17.2458 70.991 18.1866 70.9771 18.1935C70.9771 18.1935 70.6584 18.2211 70.2844 18.2488C67.3679 18.4702 63.6341 19.0858 60.0455 19.9504C59.8031 20.0057 59.5884 20.0542 59.5745 20.0542C59.5608 20.0542 59.8308 19.7844 60.1704 19.4593C62.2763 17.4325 63.2393 16.1528 64.3753 13.87C64.5345 13.5311 64.6732 13.2406 64.687 13.2198C64.6801 13.2198 64.6801 13.2198 64.687 13.2198ZM49.2594 14.7971C49.3564 14.8177 50.257 15.2398 50.9359 15.5787C51.5593 15.8899 52.4946 16.388 52.5431 16.4295C52.55 16.4364 52.2174 16.6093 51.8088 16.81C50.5064 17.4602 49.3911 18.0758 48.2272 18.7814C47.8947 18.982 47.6176 19.1481 47.6107 19.1481C47.583 19.1481 47.5899 19.1203 47.7769 18.7814C48.4005 17.647 48.8992 16.2912 49.1833 14.9699C49.2109 14.8662 49.2386 14.7971 49.2594 14.7971ZM48.3588 14.963C48.3796 14.9838 48.1441 15.8346 47.9987 16.2981C47.7145 17.1766 47.2366 18.2765 46.7725 19.1066C46.6615 19.3002 46.4953 19.5838 46.4052 19.7429L46.2321 20.0196L45.8442 19.6461C45.3939 19.2103 45.0267 18.9405 44.5557 18.6984C44.3685 18.6016 44.2231 18.5185 44.2231 18.5048C44.2231 18.4494 45.4077 17.3772 46.3152 16.6025C46.9664 16.0421 48.338 14.9423 48.3588 14.963ZM53.8663 17.2251L54.2058 17.4463C54.9815 17.9514 55.8959 18.6223 56.5957 19.2103C56.9904 19.5354 57.7524 20.2203 57.905 20.3863L57.988 20.4763L57.427 20.6354C54.2541 21.5138 51.8018 22.2955 48.9407 23.347C48.6221 23.4646 48.3519 23.5614 48.331 23.5614C48.2896 23.5614 48.2549 23.596 48.9685 22.9388C50.7974 21.258 52.4183 19.404 53.6238 17.5985L53.8663 17.2251ZM52.4184 17.5848C52.4322 17.5985 51.4832 18.9336 50.915 19.6876C50.2362 20.5869 49.0307 22.0949 48.1995 23.0771C47.8532 23.4853 47.5553 23.8242 47.5414 23.8312C47.5206 23.8381 47.5137 23.7343 47.5137 23.5752C47.5137 22.7381 47.299 21.8458 46.9248 21.0849C46.7655 20.7667 46.7378 20.6906 46.7725 20.6561C46.9041 20.5384 48.92 19.3901 50.1946 18.7053C51.0536 18.2488 52.3974 17.5709 52.4184 17.5848ZM43.6619 19.7292C43.6828 19.7292 43.8421 19.8121 44.0222 19.909C44.4656 20.1511 44.8605 20.4209 45.2137 20.7115C45.2275 20.7253 45.0475 20.8706 44.812 21.0434C44.1538 21.5138 43.1563 22.2679 42.5745 22.7314C41.9647 23.2156 41.9441 23.2294 42.0133 23.1257C42.4705 22.427 42.699 22.0327 42.9416 21.5277C43.1563 21.0782 43.371 20.5455 43.5234 20.082C43.5788 19.8814 43.6481 19.7292 43.6619 19.7292ZM45.9966 21.5553C46.0311 21.5485 46.0728 21.6107 46.2598 21.8874C46.6546 22.4753 46.9595 23.264 47.0358 23.9004L47.0495 24.0388L46.1006 24.4055C44.4032 25.0625 42.8377 25.7128 41.7776 26.197C41.4798 26.3354 40.9602 26.5844 40.6209 26.7505C40.2814 26.9233 40.0043 27.0548 40.0043 27.0479C40.0043 27.041 40.219 26.8819 40.4822 26.6881C42.5537 25.1871 44.3478 23.5407 45.6917 21.8944C45.8373 21.7214 45.9689 21.5623 45.9827 21.5554L45.9966 21.5553ZM44.9228 21.8182C44.9506 21.8459 44.1609 22.7382 43.6205 23.2847C42.2835 24.6475 40.9603 25.7128 39.3184 26.7505C39.1106 26.8819 38.9236 26.9994 38.9028 27.0133C38.8543 27.041 38.9166 26.9718 39.6371 26.1901C40.0944 25.6989 40.4407 25.2839 40.8356 24.7721C41.0988 24.4332 41.1473 24.3847 41.5284 24.1148C42.5468 23.3816 44.8951 21.7905 44.9228 21.8182Z" fill="url(#paint2_radial)"/>
<path d="M14.9245 50.4613C14.7967 50.4613 14.6689 50.4735 14.5422 50.4735C11.961 50.6108 10.2201 51.7451 9.20227 53.9603C8.33171 55.9636 8.42676 58.5823 9.21204 60.598C10.1252 62.5675 11.6008 63.6069 14.0637 63.9995C14.5848 64.0847 14.9343 64.3704 15.9435 65.5471L17.1854 67H19.4378L17.9401 65.4924C17.1122 64.6657 16.4426 63.946 16.4426 63.8827C16.4426 63.8195 16.7593 63.681 17.1426 63.5643C18.4064 63.1824 19.4559 62.2075 20.19 60.7133C20.7842 59.5135 20.8695 59.1426 20.9546 57.6498C21.1775 53.2063 18.8313 50.4283 14.9244 50.46L14.9245 50.4613ZM16.8992 62.0812C15.8035 62.6112 14.2124 62.717 13.1738 62.3365C12.0999 61.9427 11.0602 60.829 10.5926 59.5683C10.0728 58.1897 10.147 55.6465 10.7411 54.5011C11.6969 52.6776 12.9607 51.8388 14.8076 51.8388C17.5469 51.8388 19.1053 53.5141 19.3086 56.6628C19.4694 59.2912 18.5879 61.2631 16.9004 62.0801L16.8992 62.0812ZM55.8078 54.2568C54.863 54.2568 54.1398 54.6387 53.6527 55.391L53.2704 55.9868V54.4379H51.6354V63.7261H53.2694V60.7573C53.2694 58.0426 53.3033 57.7252 53.6832 56.9824C54.2068 55.9636 55.1076 55.4556 55.9783 55.6987L56.5626 55.8689V54.2593H55.8078V54.2568ZM46.2018 54.1717C45.8815 54.1717 45.5418 54.2143 45.2035 54.2885C43.0156 54.8598 41.7823 56.9508 41.8577 59.1027C41.8577 60.9044 42.2083 61.8052 43.0789 62.7499C44.8626 64.2111 46.4757 64.3278 48.6525 63.5438C49.0239 63.3857 49.4281 63.2034 49.4281 63.2034V61.7421L48.6525 62.1433C46.8908 62.9092 45.5638 62.9092 44.5008 62.0071C43.8228 61.3177 43.5244 60.4911 43.3869 59.5478H49.9796V58.2954C49.9796 55.7424 48.4407 54.1303 46.2004 54.1717H46.2018ZM43.5354 58.2444C43.5354 58.2444 43.779 56.6518 44.6823 56.0269C45.1171 55.7205 45.6162 55.5723 46.1043 55.5723C46.5938 55.5723 47.082 55.7302 47.485 56.0379C48.313 56.6737 48.4517 58.2323 48.4517 58.2323H43.5355V58.2444H43.5354ZM4.11677 56.5692C2.34417 55.4969 1.55766 54.7236 1.65383 53.8118C1.92893 51.2892 5.05065 51.6381 6.77941 52.5925L6.79171 50.8954C6.79171 50.8954 5.83593 50.4821 4.46621 50.4602C2.36483 50.4285 1.00611 51.1166 0.369445 52.5171C-0.565674 54.5838 0.262324 56.1423 3.25498 57.8809C4.93506 58.8571 5.67766 59.7045 5.67766 60.6284C5.67766 62.5371 3.37299 63.2034 0.995272 62.0058C0.505929 61.7627 0.0919302 61.5596 0.0700344 61.5596C-0.0152469 62.1007 0.0287131 63.3954 0.0287131 63.3954C0.0287131 63.3954 0.759247 63.7018 1.85488 63.9132C4.5722 64.4542 7.04503 63.1813 7.27875 61.1146C7.4821 59.1744 6.77947 58.1568 4.11688 56.5678L4.11677 56.5692ZM70.2788 54.1499C69.9598 54.1499 69.6213 54.1936 69.2682 54.2678C67.0829 54.8391 65.8519 56.9302 65.9359 59.0821C65.9359 60.8814 66.2854 61.7737 67.1558 62.717C68.9396 64.1796 70.5527 64.2975 72.7406 63.5122C73.1107 63.3542 73.5137 63.1744 73.5137 63.1744V61.7107L72.7394 62.1142C70.9741 62.8777 69.6469 62.8777 68.5878 61.9756C67.9059 61.2875 67.6101 60.4705 67.4725 59.5161H74.0543V58.2639C74.0543 55.7232 72.5153 54.1098 70.2751 54.1524L70.2788 54.1499ZM67.6125 58.2225C67.6125 58.2225 67.8584 56.6323 68.7605 55.9952C69.194 55.6877 69.6931 55.5393 70.1813 55.5393C70.6683 55.5393 71.159 55.6974 71.5621 56.0062C72.39 56.642 72.5289 58.2115 72.5289 58.2115H67.6138L67.6125 58.2225ZM37.6428 56.5898C35.8702 55.52 35.086 54.7443 35.181 53.8324C35.4561 51.3085 38.5779 51.6588 40.3067 52.6131L40.3189 50.916C40.3189 50.916 39.3631 50.5026 37.9934 50.4831C35.892 50.4516 34.5333 51.1397 33.8955 52.5402C32.9616 54.6068 33.8005 56.1654 36.7833 57.904C38.4611 58.8791 39.2037 59.7154 39.2037 60.6393C39.2037 62.5481 36.9002 63.2252 34.5224 62.0167C34.0354 61.7736 33.6215 61.5729 33.5972 61.5729C33.5119 62.1139 33.5558 63.4087 33.5558 63.4087C33.5558 63.4087 34.2777 63.7042 35.3698 63.9266C38.0897 64.4688 40.5636 63.1971 40.7962 61.1304C40.9983 59.1998 40.2971 58.1823 37.6428 56.5921V56.5898H37.6428ZM79.886 54.235C78.9412 54.235 78.2096 54.6178 77.7311 55.3704L77.3487 55.9637V54.4173H75.7136V63.703H77.3475V60.7343C77.3475 58.0207 77.3803 57.7022 77.7616 56.9606C78.285 55.9431 79.1859 55.4338 80.0564 55.678L80.6407 55.8482V54.235H79.886V54.235ZM24.64 56.5363V50.6205H22.9916V63.7237H29.9241V62.1762H24.6401V56.5363H24.64ZM62.762 58.3805L61.4033 61.911L60.0969 58.361L58.7698 54.427H57.0824C58.1758 57.5223 59.3651 60.671 60.5644 63.7237C61.0843 63.7358 61.6054 63.7237 62.1251 63.7237L63.96 59.1234L65.8288 54.4282H64.2157C64.2157 54.4282 63.5034 56.2931 62.7609 58.3817L62.762 58.3805ZM28.4386 47.0499C28.704 47.0499 28.9256 46.9649 29.1082 46.7826C29.2883 46.6025 29.3833 46.391 29.3833 46.126C29.3833 45.861 29.2883 45.6397 29.1082 45.4695C28.9256 45.2993 28.7149 45.2141 28.4507 45.2141C28.183 45.2141 27.9613 45.2993 27.7811 45.4792C27.5985 45.6592 27.5157 45.8805 27.5157 46.1358C27.5157 46.4032 27.601 46.6244 27.7811 46.7923C27.9516 46.9624 28.1732 47.0476 28.4386 47.0476V47.0499ZM27.8542 45.5425C28.0124 45.3845 28.2048 45.3114 28.4508 45.3114C28.6821 45.3114 28.8745 45.3845 29.0353 45.5425C29.1935 45.7005 29.2788 45.8926 29.2788 46.126C29.2788 46.3594 29.1935 46.5613 29.0353 46.7193C28.8746 46.8772 28.6821 46.9527 28.4508 46.9527C28.2158 46.9527 28.0246 46.8797 27.8664 46.7193C27.7082 46.5613 27.6229 46.3594 27.6229 46.126C27.6229 45.8926 27.696 45.7006 27.8542 45.5425ZM28.2474 46.2112H28.3545C28.4301 46.2112 28.5043 46.2841 28.5676 46.4227L28.6955 46.7095H28.8964L28.7381 46.3909C28.6736 46.2634 28.6104 46.1892 28.536 46.1684C28.6298 46.1465 28.704 46.115 28.7576 46.0517C28.8111 45.9971 28.8306 45.9229 28.8306 45.8389C28.8306 45.7417 28.8002 45.6688 28.7357 45.6153C28.6626 45.5545 28.5457 45.5217 28.3947 45.5217H28.0564V46.7095H28.2268V46.2111L28.2474 46.2112ZM28.2474 45.6592H28.396C28.5031 45.6592 28.5786 45.6811 28.62 45.7126C28.6602 45.7442 28.6712 45.7857 28.6712 45.861C28.6712 45.9983 28.5858 46.0628 28.4277 46.0628H28.2451V45.6592H28.2474ZM1.017 46.1053C1.017 45.692 1.00487 45.3845 0.995104 45.2033H1.00487C1.04743 45.4171 1.09981 45.5765 1.14242 45.6822L2.7251 49.2127H2.99054L4.57321 45.6507C4.61594 45.5535 4.65855 45.4075 4.71088 45.2045H4.723C4.6914 45.5571 4.68045 45.8634 4.68045 46.1077V49.2237H5.22212V44.5918H4.54279L3.08795 47.8134C3.03433 47.941 2.96006 48.132 2.86512 48.3849H2.84311C2.8115 48.2596 2.73722 48.0687 2.63134 47.8353L1.20923 44.5807H0.487346V49.2126H1.00841V46.1076L1.017 46.1053ZM6.40926 46.114H6.87688V48.9988H6.40926V46.114ZM6.64304 45.0562C6.74051 45.0562 6.82326 45.0233 6.88653 44.959C6.9511 44.8957 6.99377 44.8131 6.99377 44.7158C6.99377 44.621 6.96205 44.5358 6.88783 44.4727C6.82208 44.4082 6.73804 44.3753 6.64186 44.3753C6.54698 44.3753 6.46176 44.4082 6.39831 44.4727C6.33397 44.5358 6.29125 44.621 6.29125 44.7158C6.29125 44.8216 6.32415 44.8957 6.39831 44.959C6.47152 45.0233 6.54692 45.0562 6.64186 45.0562H6.64304ZM10.2104 49.0621V48.5538C9.95464 48.7447 9.67948 48.8396 9.39461 48.8396C9.05383 48.8396 8.77732 48.723 8.57521 48.4993C8.37438 48.2781 8.26726 47.9703 8.26726 47.5874C8.26726 47.1863 8.37438 46.8676 8.59592 46.6245C8.80898 46.3911 9.08543 46.2744 9.42392 46.2744C9.70026 46.2744 9.96553 46.3596 10.2104 46.5298V45.9888C9.98765 45.8721 9.73321 45.8186 9.44582 45.8186C8.91493 45.8186 8.5011 45.9888 8.19186 46.3172C7.88498 46.6454 7.72672 47.0916 7.72672 47.6302C7.72672 48.1091 7.86427 48.5116 8.15048 48.8192C8.44872 49.1352 8.82993 49.2957 9.29737 49.2957C9.65882 49.2857 9.95464 49.2103 10.2104 49.0621ZM11.5483 47.5241C11.5483 47.1436 11.6335 46.8361 11.7918 46.6244C11.9404 46.4336 12.1205 46.3376 12.3336 46.3376C12.5138 46.3376 12.6416 46.3704 12.7353 46.4446V45.8926C12.6623 45.861 12.5564 45.8501 12.4188 45.8501C12.2276 45.8501 12.0573 45.9143 11.9075 46.0325C11.7493 46.1575 11.6227 46.3485 11.5484 46.5917H11.5362V45.9144H11.0066V49.2212H11.5374V47.5241H11.5483ZM14.5957 49.2869C15.0949 49.2869 15.4967 49.1264 15.7949 48.808C16.0919 48.4917 16.2405 48.0663 16.2405 47.5361C16.2405 46.9953 16.1042 46.5819 15.8266 46.2742C15.5515 45.9668 15.1691 45.8183 14.6699 45.8183C14.1707 45.8183 13.7689 45.9667 13.4707 46.2536C13.1517 46.5698 12.9837 47.0159 12.9837 47.5886C12.9837 48.087 13.12 48.5004 13.4074 48.808C13.7044 49.1264 14.0977 49.2857 14.5957 49.2857V49.2869ZM13.8409 46.5928C14.043 46.3801 14.3085 46.2742 14.6371 46.2742C14.9781 46.2742 15.2337 46.3801 15.4237 46.5928C15.6148 46.8154 15.7098 47.1327 15.7098 47.5569C15.7098 47.9605 15.6245 48.2778 15.4443 48.4906C15.2642 48.7131 14.9988 48.8309 14.648 48.8309C14.3072 48.8309 14.043 48.713 13.8409 48.4906C13.64 48.2669 13.5438 47.9605 13.5438 47.5569C13.5232 47.1558 13.6291 46.8276 13.8409 46.5928ZM18.5648 48.9988C18.7669 48.8189 18.8741 48.5977 18.8741 48.3203C18.8741 48.0772 18.7888 47.8754 18.6305 47.7162C18.5014 47.5886 18.3019 47.473 18.0133 47.3563C17.7575 47.2494 17.5993 47.1545 17.514 47.0803C17.4289 46.9953 17.3765 46.8896 17.3765 46.74C17.3765 46.6026 17.4301 46.4968 17.5349 46.4117C17.642 46.3267 17.7783 46.2854 17.961 46.2854C18.2471 46.2854 18.4918 46.3607 18.7157 46.52V45.9899C18.5015 45.8831 18.2689 45.832 18.0035 45.832C17.6626 45.832 17.3753 45.9257 17.1634 46.1066C16.9405 46.2867 16.8347 46.5201 16.8347 46.7947C16.8347 47.0379 16.9077 47.2397 17.0464 47.388C17.1633 47.5144 17.3631 47.6434 17.6406 47.7588C17.9061 47.8755 18.0862 47.9812 18.1824 48.0663C18.2773 48.1515 18.3199 48.2572 18.3199 48.3825C18.3199 48.6912 18.1081 48.8506 17.6941 48.8506C17.3751 48.8506 17.0891 48.746 16.8333 48.5345V49.1057C17.0647 49.2445 17.3423 49.3076 17.6491 49.3076C18.0423 49.2869 18.3503 49.1909 18.5622 49L18.5648 48.9988ZM21.0923 45.8184C20.593 45.8184 20.1913 45.9668 19.893 46.2537C19.5765 46.5699 19.406 47.0161 19.406 47.5887C19.406 48.0871 19.5437 48.5005 19.8298 48.8081C20.128 49.1265 20.52 49.2858 21.0193 49.2858C21.5306 49.2858 21.9202 49.1254 22.2185 48.8067C22.5168 48.4907 22.6653 48.0652 22.6653 47.5351C22.6653 46.9941 22.5265 46.5808 22.2513 46.2732C21.9641 45.9656 21.5816 45.8172 21.0947 45.8172L21.0923 45.8184ZM22.1222 47.557C22.1222 47.9605 22.037 48.2779 21.8569 48.4906C21.6766 48.7132 21.4112 48.831 21.0605 48.831C20.7195 48.831 20.4554 48.713 20.2532 48.4906C20.0524 48.267 19.9563 47.9605 19.9563 47.557C19.9563 47.1315 20.0622 46.8033 20.2753 46.5819C20.4761 46.3704 20.7416 46.2634 21.0715 46.2634C21.4002 46.2634 21.6645 46.3703 21.8555 46.5819C22.026 46.8153 22.121 47.1327 22.121 47.557H22.1222ZM23.5565 49.2115H24.0861V46.3486H24.8616V45.9036H24.0861V45.393C24.0861 44.9287 24.2662 44.6952 24.6388 44.6952C24.7642 44.6952 24.8921 44.7268 24.9871 44.7803V44.3026C24.8921 44.2601 24.7642 44.2504 24.6046 44.2504C24.3186 44.2504 24.0848 44.3355 23.8936 44.5154C23.6708 44.7269 23.5528 45.0016 23.5528 45.3738V45.916H22.9926V46.3609H23.5528V49.2131L23.5565 49.2115ZM25.7321 48.3095C25.7321 48.9563 26.0183 49.2857 26.6026 49.2857C26.8145 49.2857 26.974 49.2517 27.1018 49.1763V48.7217C27.0045 48.7947 26.8887 48.8288 26.761 48.8288C26.5809 48.8288 26.4542 48.786 26.3799 48.69C26.3043 48.5953 26.2618 48.4347 26.2618 48.2134V46.3474H27.1017V45.9023H26.2618V44.9274C26.0792 44.9906 25.9002 45.0441 25.7309 45.0975V45.9023H25.1587V46.3473H25.7309V48.3083L25.7321 48.3095ZM82.7106 54.405C82.5304 54.235 82.3173 54.1498 82.0532 54.1498C81.7854 54.1498 81.5637 54.235 81.3835 54.4173C81.2033 54.596 81.118 54.8184 81.118 55.0738C81.118 55.3389 81.2034 55.5601 81.3822 55.7302C81.5624 55.9004 81.7839 55.9857 82.0518 55.9857C82.316 55.9857 82.5388 55.9004 82.7215 55.7205C82.9005 55.5382 82.9954 55.3279 82.9954 55.0641C82.9857 54.7966 82.8895 54.5753 82.7093 54.4052L82.7106 54.405ZM82.6254 55.6574C82.4671 55.8153 82.2747 55.8883 82.041 55.8883C81.8097 55.8883 81.6173 55.8153 81.4566 55.6574C81.2984 55.4969 81.2131 55.2963 81.2131 55.0616C81.2131 54.8306 81.2861 54.6386 81.4468 54.4781C81.6051 54.3202 81.7963 54.2471 82.041 54.2471C82.2723 54.2471 82.4648 54.3202 82.6254 54.4781C82.7836 54.6386 82.8688 54.8306 82.8688 55.0616C82.8688 55.3072 82.7958 55.4969 82.6254 55.6574ZM82.1481 55.1163C82.243 55.0944 82.3186 55.0519 82.3709 54.9996C82.4245 54.9449 82.4441 54.8706 82.4441 54.7858C82.4441 54.6909 82.4136 54.6155 82.3491 54.5633C82.2761 54.5024 82.158 54.4696 82.0083 54.4696H81.6698V55.6561H81.8404V55.1576H81.9462C82.0193 55.1576 82.0924 55.2305 82.158 55.3691L82.2846 55.6548H82.4868L82.3286 55.3362C82.2737 55.1976 82.2104 55.1344 82.146 55.1137L82.1481 55.1163ZM82.0312 55.0094H81.8486V54.6083H81.9984C82.1043 54.6083 82.1786 54.6276 82.2212 54.6605C82.2638 54.6921 82.2736 54.7335 82.2736 54.8089C82.2736 54.9462 82.1883 55.0095 82.0301 55.0095L82.0312 55.0094ZM52.411 45.7662H52.5595V44.5784H52.9527V44.4301H52.0178V44.5784H52.4111V45.7662H52.411ZM53.3119 44.8739C53.3119 44.7583 53.3119 44.6635 53.3034 44.6101C53.3132 44.6732 53.3351 44.7159 53.3448 44.7475L53.8014 45.7662H53.8745L54.3322 44.7377C54.3444 44.7061 54.3542 44.6647 54.3748 44.6101C54.3651 44.7159 54.3651 44.8008 54.3651 44.8654V45.765H54.5234V44.4301H54.3322L53.9183 45.3516C53.9086 45.3845 53.8755 45.4489 53.8549 45.5219H53.8428C53.8342 45.4792 53.8124 45.4367 53.7819 45.3639L53.368 44.4302H53.1537V45.7675H53.3034V44.8752L53.3119 44.8739Z" fill="#231F1F"/>
</g>
<defs>
<linearGradient id="paint0_linear" x1="36.7661" y1="41.1786" x2="40.0777" y2="39.219" gradientUnits="userSpaceOnUse">
<stop stop-color="#909CA9"/>
<stop offset="1" stop-color="#EDEDEE"/>
</linearGradient>
<linearGradient id="paint1_linear" x1="36.842" y1="4.31375" x2="39.5086" y2="4.31375" gradientUnits="userSpaceOnUse">
<stop stop-color="#939FAB"/>
<stop offset="1" stop-color="#DCDEE1"/>
</linearGradient>
<radialGradient id="paint2_radial" cx="0" cy="0" r="1" gradientUnits="userSpaceOnUse" gradientTransform="translate(50.2977 16.526) rotate(-171.47) scale(3.43789 6.86797)">
<stop stop-color="#EE352C"/>
<stop offset="1" stop-color="#A91D22"/>
</radialGradient>
<clipPath id="clip0">
<rect width="83" height="67" fill="white"/>
</clipPath>
</defs>
</svg>
